#!OML:ASF I:\Actors\actors\Patient Classification 2\Patient 1\Session 1\actor1.ASF
:FULLY-SPECIFIED
:DEGREES
207
root -0.588992 18.7716 5.42505 4.71423 -1.12837 -1.9437
lowerback 9.05283 2.24362 -2.43799
upperback 1.58549 2.75489 0.300957
thorax -3.55475 1.3947 1.34957
lowerneck -14.1114 -4.18904 -4.83973
upperneck 34.6178 -6.34091 4.43913
head 14.6092 -2.74397 1.62757
rclavicle -2.48481e-014 7.95139e-016
rhumerus -17.8368 33.4354 -85.9889
rradius 78.8465
rwrist -29.2232
rhand -0.802898 -42.8403
rfingers 7.12502
rthumb 24.8211 -71.2493
lclavicle -2.48481e-014 7.95139e-016
lhumerus -13.6476 -35.6536 86.5991
lradius 85.8151
lwrist 11.0568
lhand -3.79792 -37.3954
lfingers 7.12502
lthumb 21.948 -8.6205
rfemur 0 0 0
rtibia 0
rfoot 0 0
rtoes 0
lfemur -8.76741 -7.4911 -12.2256
ltibia 22.0747
lfoot -23.3554 16.3279
ltoes -54.1216
208
root -0.590984 18.7731 5.41519 4.75514 -1.21981 -1.98421
lowerback 9.17444 2.32925 -2.32117
upperback 1.54952 2.8721 0.201304
thorax -3.65395 1.45186 1.16074
lowerneck -13.9829 -4.27698 -4.76219
upperneck 34.5351 -6.52658 4.52705
head 14.5544 -2.80412 1.62013
rclavicle -1.48592e-014 1.61016e-014
rhumerus -17.9294 32.9914 -87.0522
rradius 78.678
rwrist -32.9071
rhand -2.50505 -42.3386
rfingers 7.12502
rthumb 23.1889 -70.9627
lclavicle -1.48592e-014 1.61016e-014
lhumerus -13.9754 -34.2477 88.0648
lradius 85.0985
lwrist 10.2755
lhand -3.68189 -38.8773
lfingers 7.12502
lthumb 22.0594 -10.1155
rfemur 0 0 0
rtibia 0
rfoot 0 0
rtoes 0
lfemur -8.82896 -7.41872 -12.1698
ltibia 22.0822
lfoot -23.3653 16.3391
ltoes -54.0709
209
root -0.594618 18.7745 5.406 4.80876 -1.32925 -1.98019
lowerback 9.29932 2.41094 -2.21584
upperback 1.50183 2.98104 0.0564271
thorax -3.7641 1.5047 0.931683
lowerneck -13.9282 -4.33216 -4.63433
upperneck 34.5363 -6.67549 4.60227
head 14.5502 -2.84185 1.60465
rclavicle 3.95581e-014 -1.70955e-014
rhumerus -17.8969 32.6278 -87.8839
rradius 78.583
rwrist -34.7539
rhand -1.12474 -42.2037
rfingers 7.12502
rthumb 24.5126 -70.6548
lclavicle 3.95581e-014 -1.70955e-014
lhumerus -14.2343 -32.8304 89.2967
lradius 84.2641
lwrist 9.30675
lhand -3.69401 -40.8703
lfingers 7.12502
lthumb 22.0478 -12.1071
rfemur 0 0 0
rtibia 0
rfoot 0 0
rtoes 0
lfemur -8.90247 -7.24832 -12.157
ltibia 22.091
lfoot -23.3226 16.3107
ltoes -54.0628
210
root -0.60303 18.7767 5.39859 5.0069 -1.62003 -1.99059
lowerback 8.90332 2.48183 -2.43642
upperback 1.60496 3.06627 0.0671631
thorax -3.45199 1.54675 1.07511
lowerneck -14.0368 -4.30955 -4.50106
upperneck 34.5428 -6.63557 4.48335
head 14.5637 -2.82154 1.5371
rclavicle 1.95803e-014 -1.39149e-014
rhumerus -17.3639 32.8622 -88.2107
rradius 78.6739
rwrist -37.1614
rhand 1.09649 -42.0732
rfingers 7.12502
rthumb 26.6402 -70.2188
lclavicle 1.95803e-014 -1.39149e-014
lhumerus -14.1051 -31.0481 90.3277
lradius 83.1898
lwrist 8.40492
lhand -4.25506 -43.3424
lfingers 7.12502
lthumb 21.509 -14.5166
rfemur 0 0 0
rtibia 0
rfoot 0 0
rtoes 0
lfemur -9.07406 -6.96796 -12.118
ltibia 22.0901
lfoot -23.3115 16.3442
ltoes -54.056
211
root -0.606833 18.7773 5.39309 5.07686 -1.68372 -1.99989
lowerback 9.05017 2.48172 -2.32173
upperback 1.44746 3.06518 -0.0842964
thorax -3.68285 1.54697 0.843886
lowerneck -13.868 -4.29429 -4.30645
upperneck 34.6943 -6.68191 4.47129
head 14.5891 -2.81981 1.49531
rclavicle 3.45885e-014 -7.15625e-015
rhumerus -17.3498 32.8988 -88.9222
rradius 79.1021
rwrist -41.3804
rhand 2.3104 -41.5156
rfingers 7.12502
rthumb 27.8014 -69.4792
lclavicle 3.45885e-014 -7.15625e-015
lhumerus -14.4084 -29.459 91.3196
lradius 82.0241
lwrist 8.16635
lhand -5.30102 -45.7781
lfingers 7.12502
lthumb 20.5042 -16.8408
rfemur 0 0 0
rtibia 0
rfoot 0 0
rtoes 0
lfemur -9.14541 -6.84779 -12.0852
ltibia 22.0757
lfoot -23.2575 16.3057
ltoes -54.0731
212
root -0.605976 18.7774 5.38583 5.01934 -1.52999 -1.97992
lowerback 8.8568 2.31112 -2.44101
upperback 1.65358 2.83652 -0.0564805
thorax -3.3606 1.43119 0.980944
lowerneck -13.9444 -4.16328 -4.11252
upperneck 34.6293 -6.49755 4.35146
head 14.5504 -2.73235 1.44088
rclavicle -2.20651e-014 1.19271e-015
rhumerus -16.7299 33.1963 -89.0872
rradius 79.7558
rwrist -46.4939
rhand 3.17806 -41.2767
rfingers 7.12502
rthumb 28.6307 -69.1034
lclavicle -2.20651e-014 1.19271e-015
lhumerus -14.1457 -27.5219 92.0722
lradius 80.8735
lwrist 9.11362
lhand -6.48863 -47.4925
lfingers 7.12502
lthumb 19.3626 -18.4365
rfemur 0 0 0
rtibia 0
rfoot 0 0
rtoes 0
lfemur -9.13375 -6.94571 -12.0967
ltibia 22.0513
lfoot -23.1824 16.2662
ltoes -54.0898
